HIERARCHY
ROOT RootJoint
{
    OFFSET   0.000000   0.000000   0.000000
    CHANNELS 6 Xposition Yposition Zposition Xrotation Yrotation Zrotation
    JOINT pelvis_lowerback
    {
        OFFSET   0.000000   0.093605   0.000000
        CHANNELS 3 Xrotation Yrotation Zrotation
        JOINT lowerback_torso
        {
            OFFSET   0.000000   0.100000   0.000000
            CHANNELS 3 Xrotation Yrotation Zrotation
            JOINT torso_head
            {
                OFFSET   0.000000   0.282350   0.000000
                CHANNELS 3 Xrotation Yrotation Zrotation
                End Site
                {
                    OFFSET   0.000000   0.192650   0.000000
                }
            }
            JOINT rTorso_Clavicle
            {
                OFFSET  -0.001000   0.157500   0.000000
                CHANNELS 3 Xrotation Yrotation Zrotation
                JOINT rShoulder
                {
                    OFFSET  -0.117647   0.000000   0.000000
                    CHANNELS 3 Xrotation Yrotation Zrotation
                    JOINT rElbow
                    {
                        OFFSET  -0.245000   0.000000   0.000000
                        CHANNELS 3 Xrotation Yrotation Zrotation
                        JOINT rWrist
                        {
                            OFFSET  -0.240000   0.000000   0.000000
                            CHANNELS 3 Xrotation Yrotation Zrotation
                            End Site
                            {
                                OFFSET  -0.116353  -0.002500   0.000000
                            }
                        }
                    }
                }
            }
            JOINT lTorso_Clavicle
            {
                OFFSET   0.001000   0.157500   0.000000
                CHANNELS 3 Xrotation Yrotation Zrotation
                JOINT lShoulder
                {
                    OFFSET   0.117647   0.000000   0.000000
                    CHANNELS 3 Xrotation Yrotation Zrotation
                    JOINT lElbow
                    {
                        OFFSET   0.245000   0.000000   0.000000
                        CHANNELS 3 Xrotation Yrotation Zrotation
                        JOINT lWrist
                        {
                            OFFSET   0.240000   0.000000   0.000000
                            CHANNELS 3 Xrotation Yrotation Zrotation
                            End Site
                            {
                                OFFSET   0.116353  -0.002500   0.000000
                            }
                        }
                    }
                }
            }
        }
    }
    JOINT rHip
    {
        OFFSET  -0.100000  -0.051395   0.000000
        CHANNELS 3 Xrotation Yrotation Zrotation
        JOINT rKnee
        {
            OFFSET   0.000000  -0.410000   0.000000
            CHANNELS 3 Xrotation Yrotation Zrotation
            JOINT rAnkle
            {
                OFFSET   0.000000  -0.390000   0.000000
                CHANNELS 3 Xrotation Yrotation Zrotation
                JOINT rToeJoint
                {
                    OFFSET   0.000000  -0.050000   0.130000
                    CHANNELS 3 Xrotation Yrotation Zrotation
                    End Site
                    {
                        OFFSET  -0.010000   0.002000   0.060000
                    }
                }
            }
        }
    }
    JOINT lHip
    {
        OFFSET   0.100000  -0.051395   0.000000
        CHANNELS 3 Xrotation Yrotation Zrotation
        JOINT lKnee
        {
            OFFSET   0.000000  -0.410000   0.000000
            CHANNELS 3 Xrotation Yrotation Zrotation
            JOINT lAnkle
            {
                OFFSET   0.000000  -0.390000   0.000000
                CHANNELS 3 Xrotation Yrotation Zrotation
                JOINT lToeJoint
                {
                    OFFSET   0.000000  -0.050000   0.130000
                    CHANNELS 3 Xrotation Yrotation Zrotation
                    End Site
                    {
                        OFFSET   0.010000   0.002000   0.060000
                    }
                }
            }
        }
    }
}
MOTION
Frames: 7
Frame Time:   0.008333
 -2.350881   0.917772   3.927482  11.687537  -2.477744   0.720042  28.134924   3.465155   3.960095   9.358569   2.887245   3.359122   6.824880  -7.804071   3.370464  -2.837354  22.997288  -2.603453 -27.426984  14.343262  47.960014   0.015325  46.351725  -0.005456  -8.785041   0.954905  -7.538153  -1.845212  -5.909575   5.356722  -8.347350 -10.288011 -41.798080 -179.796334 -88.830909 -179.783122  -3.563996  -3.977241   4.890050 -19.740057  -9.109944  -8.713894   4.897438   0.000059  -0.000028   6.586289  -5.040625   1.773293  -4.862691   0.000232  -0.000077 -14.711755   1.027784   4.876401   3.818658  -0.000080   0.000105  -0.615948   5.791649  -0.225765   0.275291  -0.000041   0.000001
 -2.350413   0.917753   3.928395  11.667909  -2.418867   0.774610  27.934175   3.449453   4.068176   9.501908   2.972404   3.481754   6.890932  -7.839587   3.448859  -2.717835  22.653889  -2.516425 -26.949170  14.463212  47.929279   0.015134  47.129865  -0.005640  -8.709543   0.936761  -7.292855  -1.691257  -5.352540   5.425529  -7.828036  -9.975759 -41.597598 -179.888792 -88.117128 -179.875339  -3.483895  -4.056200   4.569068 -19.666308  -9.153346  -8.817126   4.913026   0.000052  -0.000022   6.396487  -5.064895   1.719861  -4.657013   0.000340  -0.000095 -14.592829   0.959806   4.759658   3.745349  -0.000092   0.000107  -0.656986   5.827888  -0.110261   0.293188  -0.000043   0.000001
 -2.349936   0.917728   3.929312  11.647425  -2.360917   0.831065  27.740267   3.439284   4.182907   9.644460   3.058273   3.602159   6.958813  -7.873319   3.524195  -2.602996  22.300840  -2.446341 -26.494788  14.564981  47.884181   0.014504  47.864223  -0.005506  -8.625778   0.990229  -7.050666  -1.524269  -4.789634   5.489169  -7.316500  -9.661646 -41.410877 -179.928124 -87.448075 -179.914752  -3.404777  -4.154088   4.211207 -19.591611  -9.194464  -8.922596   4.927959   0.000047  -0.000018   6.207068  -5.089592   1.668791  -4.457906   0.000419  -0.000109 -14.474194   0.896353   4.641627   3.674139  -0.000102   0.000106  -0.698041   5.860339  -0.001921   0.309075  -0.000043   0.000001
 -2.349470   0.917701   3.930209  11.628020  -2.307363   0.886390  27.555628   3.436596   4.300459   9.779490   3.145895   3.718945   7.024174  -7.904504   3.596413  -2.494659  21.955554  -2.387368 -26.066017  14.651858  47.830767   0.013647  48.547688  -0.005209  -8.544573   1.047742  -6.837345  -1.358558  -4.241562   5.546149  -6.827427  -9.353961 -41.237750 -179.948743 -86.827044 -179.935719  -3.330465  -4.230146   3.857559 -19.519870  -9.232356  -9.025104   4.942440   0.000043  -0.000014   6.025823  -5.112142   1.620815  -4.272891   0.000466  -0.000116 -14.360085   0.838009   4.527525   3.607248  -0.000107   0.000102  -0.738986   5.890797   0.099202   0.323337  -0.000042   0.000001
 -2.349023   0.917673   3.931076  11.610256  -2.257952   0.939874  27.380463   3.439372   4.418122   9.905303   3.233516   3.831764   7.086101  -7.933269   3.665072  -2.393349  21.625465  -2.335724 -25.663531  14.728357  47.774276   0.012701  49.183809  -0.004837  -8.467402   1.097210  -6.647981  -1.199690  -3.717358   5.597624  -6.365799  -9.057967 -41.077713 -179.961071 -86.249751 -179.948584  -3.260650  -4.285655   3.518900 -19.451827  -9.267408  -9.123310   4.956101   0.000039  -0.000011   5.853461  -5.132721   1.576018  -4.101030   0.000488  -0.000119 -14.251626   0.784177   4.418596   3.544442  -0.000108   0.000097  -0.779168   5.919430   0.193718   0.336316  -0.000039   0.000001
 -2.348601   0.917645   3.931911  11.594351  -2.212355   0.991268  27.214507   3.445776   4.534230  10.021520   3.319581   3.940432   7.144440  -7.959841   3.729953  -2.299164  21.314005  -2.289130 -25.287048  14.797548  47.717918   0.011734  49.776495  -0.004435  -8.394007   1.139693  -6.475436  -1.050004  -3.221286   5.644435  -5.933107  -8.776614 -40.930182 -179.969148 -85.712028 -179.957321  -3.194547  -4.328462   3.196502 -19.387629  -9.299939  -9.216674   4.968672   0.000036  -0.000009   5.689782  -5.151577   1.534327  -3.940794   0.000491  -0.000118 -14.149101   0.734430   4.315282   3.485270  -0.000107   0.000092  -0.818169   5.946334   0.282132   0.348243  -0.000036   0.000001
 -2.348205   0.917615   3.932711  11.580371  -2.170392   1.040480  27.057398   3.454411   4.647761  10.128294   3.402961   4.044838   7.199221  -7.984428   3.791032  -2.211981  21.022461  -2.246246 -24.935724  14.861375  47.663451   0.010783  50.329209  -0.004029  -8.323959   1.177766  -6.314720  -0.910330  -2.755054   5.687089  -5.529194  -8.511320 -40.794500 -179.974819 -85.210396 -179.963729  -3.131583  -4.364805   2.889359 -19.327245  -9.330144  -9.304955   4.980014   0.000032  -0.000007   5.534428  -5.168860   1.495608  -3.790868   0.000481  -0.000115 -14.052472   0.688480   4.217730   3.429370  -0.000103   0.000086  -0.855795   5.971665   0.364877   0.359284  -0.000033   0.000001
